<svg width="206" height="640" viewBox="0 0 206 640" fill="none" xmlns="http://www.w3.org/2000/svg">
<path d="M126 1.5L131 0.5H134L141 1.5L147.5 4L153.5 9.5L159.5 14.5L164 20L170 28L174.5 35.5L178.5 44.5L182.5 52L186 63.5L190.5 74L192.5 82.5L198 98L200.5 115L202 128.5L203 142.5L205 165L203 196L200.5 221.5L197 241L186 284.5L164 341L152.5 369L143.5 390L136.5 409L130.5 425.5L125.5 443L121.5 456L117 473L112 494L108.5 513L106.5 529L104 582.5L103 588L102 604.5L99.5 614.5L96 623L91 630.5L85 636L78 639.5H69H62L55.5 638L50.5 635L45.5 630.5L40.5 625L36.5 618L33 612L27 591L19 553L13.5 526.5L10 495.5L7.00005 467L4.00005 441L1.00005 407L0.500046 361.5L1.00005 333L2.50005 308L6.00005 271.5L9.00005 247.5L16.5 205L29.5 158.5L39.5 131L48.5 109.5L58.5 88L70.5 65L80.5 48.5L92.5 31L103.5 17.5L112.5 9.5L114.5 7.5L117 6L119.5 4L122.5 2.5L126 1.5Z" fill="#00C3FF" stroke="black"/>
</svg>
