<svg width="421" height="355" viewBox="0 0 421 355" fill="none" xmlns="http://www.w3.org/2000/svg">
<path d="M42 150.521L5.5 161.021L1.5 164.021H4L8.5 165.521H15.5L21.5 166.521L28.5 168.521L35 170.521L42 177.521L46.5 185.021V192.521L43 203.521L41.5 213.021L40.5 223.521L42 235.521L46.5 244.521L61.5 261.021L71.5 263.021L119.5 284.521L163.5 307.521L201.5 324.521L221.5 333.521L257 346.521L273 352.021L291.5 353.521H311.5L325 344.521L339 331.521L353.5 312.021L364 293.521L374.5 271.521L380 254.521V233.521L377 222.021L369 214.521H364H335.5H298.5L265.5 213.521L214 207.021L179.5 205.521L170 203.521L173.5 202.021L195.5 196.021L223.5 187.021L259.5 173.521L288.5 163.521L312 152.521L328 144.021L347.5 134.021L362.5 127.521L377 120.521L390 113.021L403.5 106.521L417 96.5208V86.0208V76.5208V66.0208V58.5208V51.5208V47.5208L418.5 39.5208L419.5 31.5208L410.5 27.5208L394.5 23.0208L374.5 16.0208L355 11.5208L338 7.52075L318.5 4.52075L294 2.02075L271.5 0.520752L263.5 16.0208L249.5 35.5208L233 53.5208L212 72.0208L187.5 88.0208L167.5 101.021L139 113.021L114.5 123.021L90.5 131.021L65.5 142.021L42 150.521Z" fill="#FF0CEF" stroke="black"/>
</svg>
