<svg width="327" height="456" viewBox="0 0 327 456" fill="none" xmlns="http://www.w3.org/2000/svg">
<path d="M47.009 157.176L25.509 170.676L1.8972 186.096L0.509033 187.676L1.00903 198.176V221.176V233.176V252.676L3.00903 283.676L4.00903 304.176L5.50903 331.176L6.50903 358.676L8.00903 381.676L9.50903 391.676L11.009 398.176L16.509 404.676L24.009 410.676L34.009 417.176L46.009 424.676L57.009 430.176L68.009 435.176L80.009 441.176L93.009 446.176L114.009 455.176V452.176L119.009 438.176L124.009 424.676L128.509 411.676L138.009 390.176L159.009 350.676L167.509 333.176L192.509 298.176L204.509 278.676L218.009 261.176L235.509 237.176L244.009 223.676L256.509 204.676L270.009 187.676L280.009 173.176L298.009 145.676L305.009 130.676L314.009 110.676L320.509 94.6763L324.509 85.6763L325.509 71.6763L324.509 59.6763L319.509 50.1763L314.009 36.1763L308.509 20.6763L304.009 4.17627L301.509 0.67627L296.009 4.17627L291.509 14.1763L288.009 19.1763L294.509 27.1763L298.009 38.1763L298.509 42.6763L298.009 48.6763V55.1763V59.6763L296.009 67.1763L291.509 79.1763L286.009 90.6763L277.509 107.676L271.009 118.176L263.509 128.676L256.509 137.176L250.509 143.676L244.009 148.676L237.009 153.676L230.009 158.676H220.009H203.009L192.009 157.676L186.509 156.176L176.509 152.676L155.509 145.176L149.509 142.676L142.009 139.676L135.009 137.176L126.509 133.676L119.009 130.176L104.009 122.676L100.009 125.676L92.009 132.176L76.509 140.676L65.009 146.676L47.009 157.176Z" fill="#4600F8"/>
<path d="M1.00903 186.676L1.8972 186.096M1.8972 186.096L25.509 170.676L47.009 157.176L65.009 146.676L76.509 140.676L92.009 132.176L100.009 125.676L104.009 122.676L119.009 130.176L126.509 133.676L135.009 137.176L142.009 139.676L149.509 142.676L155.509 145.176L176.509 152.676L186.509 156.176L192.009 157.676L203.009 158.676H220.009H230.009L237.009 153.676L244.009 148.676L250.509 143.676L256.509 137.176L263.509 128.676L271.009 118.176L277.509 107.676L286.009 90.6763L291.509 79.1763L296.009 67.1763L298.009 59.6763V55.1763V48.6763L298.509 42.6763L298.009 38.1763L294.509 27.1763L288.009 19.1763L291.509 14.1763L296.009 4.17627L301.509 0.67627L304.009 4.17627L308.509 20.6763L314.009 36.1763L319.509 50.1763L324.509 59.6763L325.509 71.6763L324.509 85.6763L320.509 94.6763L314.009 110.676L305.009 130.676L298.009 145.676L280.009 173.176L270.009 187.676L256.509 204.676L244.009 223.676L235.509 237.176L218.009 261.176L204.509 278.676L192.509 298.176L167.509 333.176L159.009 350.676L138.009 390.176L128.509 411.676L124.009 424.676L119.009 438.176L114.009 452.176V455.176L93.009 446.176L80.009 441.176L68.009 435.176L57.009 430.176L46.009 424.676L34.009 417.176L24.009 410.676L16.509 404.676L11.009 398.176L9.50903 391.676L8.00903 381.676L6.50903 358.676L5.50903 331.176L4.00903 304.176L3.00903 283.676L1.00903 252.676V233.176V221.176V198.176L0.509033 187.676L1.8972 186.096Z" stroke="black"/>
</svg>
