<svg width="206" height="640" viewBox="0 0 206 640" fill="none" xmlns="http://www.w3.org/2000/svg">
<path d="M79.5015 1.5L74.5015 0.5H71.5015L64.5015 1.5L58.0015 4L52.0015 9.5L46.0015 14.5L41.5015 20L35.5015 28L31.0015 35.5L27.0015 44.5L23.0015 52L19.5015 63.5L15.0015 74L13.0015 82.5L7.50146 98L5.00146 115L3.50146 128.5L2.50146 142.5L0.501465 165L2.50146 196L5.00146 221.5L8.50146 241L19.5015 284.5L41.5015 341L53.0015 369L62.0015 390L69.0015 409L75.0015 425.5L80.0015 443L84.0015 456L88.5015 473L93.5015 494L97.0015 513L99.0015 529L101.501 582.5L102.501 588L103.501 604.5L106.001 614.5L109.501 623L114.501 630.5L120.501 636L127.501 639.5H136.501H143.501L150.001 638L155.001 635L160.001 630.5L165.001 625L169.001 618L172.501 612L178.501 591L186.501 553L192.001 526.5L195.501 495.5L198.501 467L201.501 441L204.501 407L205.001 361.5L204.501 333L203.001 308L199.501 271.5L196.501 247.5L189.001 205L176.001 158.5L166.001 131L157.001 109.5L147.001 88L135.001 65L125.001 48.5L113.001 31L102.001 17.5L93.0015 9.5L91.0015 7.5L88.5015 6L86.0015 4L83.0015 2.5L79.5015 1.5Z" fill="#00C3FF" stroke="black"/>
</svg>
