<svg width="896" height="615" viewBox="0 0 896 615" fill="none" xmlns="http://www.w3.org/2000/svg">
<path d="M216.002 587.5L253.502 607L263.002 610.5L278.502 613L290.002 614.5H307.502L320.002 613L337.002 608.5L355.002 605L392.502 599.5L417.002 594.5L435.002 591.5L459.002 587.5L490.002 583.5L520.502 580.5L542.002 578.5L588.502 575.5L604.502 574.5H622.502L658.002 573H674.502L696.502 574.5L711.502 576.5L728.502 578.5L745.002 583L759.002 585.5L786.502 594.5L798.502 598L814.002 604.5V595.5L817.002 579.5L821.502 565L828.002 547.5L833.502 529L848.002 498L863.002 466L876.502 443L893.502 398L895.502 372L890.002 345.5L880.502 312L870.502 288.5L853.502 256L832.502 224L807.502 197L776.502 166.5L757.002 148.5L708.502 114L673.002 95.5L636.002 77L596.002 59.5L547.502 40.5L508.502 27L476.502 18L451.002 12L425.502 7L408.502 4.5L375.502 0.5H303.002L271.002 4.5L239.502 11L201.502 20.5L172.502 31L135.502 48.5L108.002 66.5L78.0015 91L50.5015 123L29.5015 159.5L15.0015 191.5L5.50153 222.5L2.00153 249L0.501526 294L5.50153 321L17.0015 366.5L46.0015 423L80.0015 468.5L111.502 502L144.502 533.5L168.002 551.5L197.502 574.5L216.002 587.5Z" fill="#D0FF00" stroke="black"/>
</svg>
